Coordinates
version=1
nRows=16
nColumns=33
inDegrees=yes

Units are S.I. units (second, meters, Newtons, ...)
Angles are in degrees.

endheader
time	ground_thorax_rot_x	ground_thorax_rot_y	ground_thorax_rot_z	ground_thorax_tx	ground_thorax_ty	ground_thorax_tz	clav_prot_r	clav_elev_r	scapula_abduction_r	scapula_elevation_r	scapula_upward_rot_r	scapula_winging_r	shoulder_elv_r	plane_of_elev_r	axial_rot_r	elbow_flexion_r	pro_sup_r	wrist_flex_r	wrist_dev_r	clav_prot_l	clav_elev_l	scapula_abduction_l	scapula_elevation_l	scapula_upward_rot_l	scapula_winging_l	shoulder_elv_l	plane_of_elev_l	axial_rot_l	elbow_flexion_l	pro_sup_l	wrist_flex_l	wrist_dev_l	
11.2500	29.187813	30.348259	39.818474	-98.951861	779.803314	6.544184	14.114490	36.295074	34.357187	45.000000	-45.000000	-2239.027050	-2271.125946	144.837862	180.000000	1087.508121	-304.822877	23.303867	13.462770	6.650651	-45.000000	-36.351204	45.000000	-44.999999	2253.441188	-4778.894425	139.980723	146.419079	369.426968	21.252167	8.686952	-19.657546	
11.2600	29.415412	30.243951	39.414316	-100.817303	780.270949	6.512703	14.124129	36.303859	34.444196	45.000000	-45.000000	-2239.159584	-2271.003718	144.782904	180.000000	1087.623808	-304.992718	23.310267	13.448409	6.646366	-45.000000	-36.386667	45.000000	-44.999998	2253.505037	-4778.712553	139.819466	146.981893	369.485897	20.656975	8.727338	-19.670571	
11.2700	29.644326	30.127856	39.007969	-102.681233	780.777152	6.492366	14.132759	36.315221	34.526328	45.000000	-45.000000	-2239.286028	-2270.871706	144.721275	180.000000	1087.746410	-305.162147	23.314096	13.431351	6.642494	-45.000000	-36.417742	45.000000	-44.999997	2253.568918	-4778.527431	139.656013	147.563756	369.544161	20.073703	8.767430	-19.688224	
11.2800	29.859137	30.016355	38.622905	-104.545470	781.321846	6.482061	14.145692	36.328472	34.605845	45.000000	-45.000000	-2239.406311	-2270.741485	144.670188	180.000000	1087.865538	-305.333530	23.309327	13.408567	6.638898	-45.000000	-36.440124	45.000000	-44.999994	2253.630078	-4778.344683	139.500586	148.170098	369.590917	19.513561	8.806018	-19.707482	
11.2900	30.074240	29.897832	38.233586	-106.412166	781.904807	6.479806	14.154490	36.335372	34.690408	45.000000	-45.000000	-2239.520471	-2270.606359	144.621348	180.000000	1087.978632	-305.508935	23.299958	13.386773	6.641514	-45.000000	-36.461665	45.000000	-44.999989	2253.686390	-4778.165182	139.342839	148.781401	369.623706	18.985597	8.842159	-19.727896	
11.3000	30.275184	29.782751	37.858296	-108.283877	782.525643	6.482958	14.166675	36.347954	34.769727	45.000000	-45.000000	-2239.630386	-2270.469894	144.579414	180.000000	1088.089171	-305.691496	23.283021	13.362201	6.641770	-45.000000	-36.481055	45.000000	-44.999980	2253.741869	-4777.981800	139.190742	149.394227	369.652682	18.492680	8.872834	-19.751568	
11.3100	30.475049	29.660231	37.478060	-110.163247	783.183781	6.488477	14.175311	36.349769	34.854415	45.000000	-45.000000	-2239.741176	-2270.327896	144.539774	180.000000	1088.202887	-305.882826	23.263365	13.338064	6.650387	-45.000000	-36.502026	45.000000	-44.999964	2253.794158	-4777.797266	139.039695	149.995907	369.676875	18.035885	8.898576	-19.777829	
11.3200	30.658228	29.541962	37.119018	-112.053077	783.878423	6.493239	14.187690	36.358647	34.931447	45.000000	-45.000000	-2239.851271	-2270.185462	144.508040	180.000000	1088.326851	-306.083947	23.238545	13.308184	6.659036	-45.000000	-36.513994	45.000000	-44.999936	2253.848040	-4777.605655	138.901071	150.592652	369.702058	17.610430	8.915006	-19.807270	
11.3300	30.839801	29.414921	36.760810	-113.956131	784.608473	6.494280	14.198485	36.359252	35.012006	45.000000	-45.000000	-2239.962291	-2270.039159	144.478792	180.000000	1088.464169	-306.291992	23.213119	13.274199	6.676965	-45.000000	-36.523193	45.000000	-44.999885	2253.901852	-4777.412677	138.770697	151.171892	369.724686	17.213245	8.924182	-19.838601	
11.3400	31.008466	29.285423	36.416337	-115.875262	785.372483	6.489084	14.212345	36.370384	35.084307	45.000000	-45.000000	-2240.070539	-2269.893035	144.452588	180.000000	1088.615270	-306.500645	23.187337	13.233044	6.692938	-45.000000	-36.527468	45.000000	-44.999794	2253.960500	-4777.212418	138.653485	151.733804	369.753644	16.838335	8.923184	-19.873548	
11.3500	31.178115	29.144395	36.064096	-117.813291	786.168578	6.475699	14.223674	36.372826	35.161458	45.000000	-45.000000	-2240.178332	-2269.744685	144.426903	180.000000	1088.773973	-306.699958	23.164917	13.187076	6.714416	-45.000000	-36.535440	45.000000	-44.999631	2254.018627	-4777.012188	138.543284	152.268151	369.781625	16.482453	8.915868	-19.909618	
11.3600	31.339454	28.997655	35.712322	-119.772983	786.994376	6.452921	14.235703	36.382505	35.233164	45.000000	-45.000000	-2240.280928	-2269.596106	144.402225	180.000000	1088.936380	-306.880053	23.146585	13.134725	6.731952	-45.000000	-36.546673	45.000000	-44.999339	2254.079878	-4776.805523	138.441172	152.772059	369.814748	16.139986	8.900051	-19.947407	
11.3700	31.504370	28.836830	35.343179	-121.756620	787.846848	6.420252	14.244568	36.385692	35.307835	45.000000	-45.000000	-2240.381424	-2269.443503	144.372968	180.000000	1089.099188	-307.031458	23.135876	13.077839	6.750519	-45.000000	-36.569532	45.000000	-44.998815	2254.142066	-4776.596033	138.340781	153.236491	369.850776	15.807891	8.878985	-19.985422	
11.3800	31.667121	28.664892	34.961246	-123.765875	788.722227	6.378051	14.253597	36.392606	35.376050	45.000000	-45.000000	-2240.478428	-2269.285598	144.335400	180.000000	1089.263261	-307.148309	23.134440	13.016114	6.765029	-45.000000	-36.604151	45.000000	-44.997881	2254.209467	-4776.377532	138.242537	153.656828	369.898466	15.482260	8.852377	-20.024978	
11.3900	31.829904	28.482862	34.570498	-125.801478	789.615984	6.327426	14.262048	36.391841	35.440847	45.000000	-45.000000	-2240.576256	-2269.122236	144.290403	180.000000	1089.429172	-307.229069	23.142316	12.948976	6.782062	-45.000000	-36.643731	45.000000	-44.996193	2254.280129	-4776.154482	138.148411	154.036902	369.950338	15.159270	8.821214	-20.062873	
11.4000	31.987244	28.300307	34.184389	-127.863139	790.522901	6.270428	14.274158	36.390891	35.499384	45.000000	-45.000000	-2240.671581	-2268.953638	144.248113	180.000000	1089.595732	-307.277993	23.154219	12.872299	6.800368	-45.000000	-36.683351	45.000000	-44.993213	2254.352843	-4775.931449	138.066611	154.371154	370.001823	14.835809	8.786183	-20.097522	
